<?xml version="1.0" standalone="no"?>
<!DOCTYPE svg PUBLIC "-//W3C//DTD SVG 20010904//EN"
 "http://www.w3.org/TR/2001/REC-SVG-20010904/DTD/svg10.dtd">
<svg version="1.0" xmlns="http://www.w3.org/2000/svg"
 width="512.000000pt" height="512.000000pt" viewBox="0 0 512.000000 512.000000"
 preserveAspectRatio="xMidYMid meet">

<g transform="translate(0.000000,512.000000) scale(0.100000,-0.100000)"
fill="#000000" stroke="none">
<path d="M600 4423 c-55 -9 -159 -47 -225 -81 -88 -46 -225 -180 -278 -272
-21 -36 -50 -101 -65 -145 l-27 -80 0 -1285 0 -1285 27 -80 c40 -118 92 -200
188 -295 89 -90 163 -136 290 -182 l65 -23 1950 -3 c2188 -3 2025 -8 2191 73
200 97 347 291 390 513 21 110 21 2454 0 2564 -50 261 -230 464 -496 560 l-65
23 -1960 1 c-1078 1 -1971 0 -1985 -3z m2428 -613 c43 -26 72 -76 72 -124 0
-27 -132 -415 -401 -1175 -220 -625 -407 -1146 -415 -1159 -40 -62 -142 -82
-204 -39 -38 26 -70 80 -70 119 0 15 176 526 391 1135 215 610 398 1127 406
1150 15 44 54 90 88 104 37 14 99 10 133 -11z m-1198 -299 c61 -43 88 -127 59
-184 -6 -12 -187 -199 -402 -414 l-392 -393 351 -352 c372 -373 384 -389 369
-461 -22 -101 -140 -153 -227 -98 -18 11 -214 201 -435 423 -438 440 -435 436
-412 523 9 34 75 104 468 498 480 481 494 493 566 480 17 -3 41 -13 55 -22z
m1705 -2 c17 -10 211 -199 432 -421 342 -344 403 -409 412 -443 23 -88 30 -79
-462 -573 -249 -249 -465 -461 -482 -469 -41 -22 -111 -20 -144 5 -62 46 -89
128 -60 185 6 12 187 199 402 414 l392 393 -347 347 c-243 244 -352 360 -363
387 -32 76 9 163 90 191 46 15 87 10 130 -16z"/>
</g>
</svg>
